<svg width="50" height="50" viewBox="0 0 50 50" fill="none" xmlns="http://www.w3.org/2000/svg">
<rect width="50" height="50" rx="25" fill="#FAACA8"/>
<rect width="50" height="50" rx="25" fill="url(#paint0_linear_3_21)"/>
<path d="M24.9569 2.85721C24.9569 2.85721 9.57159 20.298 9.57159 29.8931C9.57159 37.8426 16.4591 44.2858 24.9569 44.2858C33.4547 44.2858 40.3422 37.8426 40.3422 29.8931C40.3422 20.298 24.9569 2.85721 24.9569 2.85721ZM18.2438 30.8366C18.2438 33.117 19.3857 37.6332 20.1823 39.5138C14.9821 37.1246 13.6077 32.4374 13.6077 29.1782C13.6077 24.104 19.9054 16.6662 23.4833 9.74971C23.0901 13.3815 18.2438 23.9297 18.2438 30.8366Z" fill="#334155"/>
<defs>
<linearGradient id="paint0_linear_3_21" x1="9.28572" y1="39.5714" x2="67.7143" y2="-19.8571" gradientUnits="userSpaceOnUse">
<stop stop-color="#FAACA8"/>
<stop offset="0.395253" stop-color="#E8C6D6" stop-opacity="0.883219"/>
<stop offset="0.585714" stop-color="#DDD6F3" stop-opacity="0.81"/>
</linearGradient>
</defs>
</svg>
